<svg id="Capa_1" data-name="Capa 1" xmlns="http://www.w3.org/2000/svg" viewBox="0 0 1077.09 1377.88"><defs><style>.cls-1{fill:#231f20;}</style></defs><path d="M661.9,296.39a86,86,0,0,0-96.13-42.67C510.86,267.12,428.28,311,357.25,446.28,238.48,672.5,316.53,725.66,372,747.15c55.65,21.58,184.47-41.85,255.11-161.75C686,485.38,706.87,379.85,661.9,296.39Z" transform="translate(-12.61 -16.13)"/><path d="M726,1284.12c21.52,9,16.13,24.76-19.6,40.74-67.46,30.16-189.88,85.72-341.19,64.39C119.08,1354.56,54.56,1232.7,87.91,1232.48c9.75-.07,117.57,142.66,332.63,137.92C653.35,1365.27,713.59,1279,726,1284.12Z" transform="translate(-12.61 -16.13)"/><path d="M883.22,751.32a17.74,17.74,0,0,0-5.45-3.25c18.1,35.35-43,200.68-56.54,231.72-8.86,20.35-2.36,57.43-22.24,86.17-21.82,31.55-37.72,47.41-71.87,71-30.89,21.39-26.9,32.4-65,53.25-57.65,31.51-180.83,52.82-216.6,54.58-62.93,3.09-135.29-13.16-175.83-40.61-46.52-31.51-128.3-58.74-134.69-89-9-42.43-109.11-146.14-71.42-223.67,12.13-24.95,63.72-140.84,119.13-167a58.51,58.51,0,0,0-11.51-.11c-63,6.07-110.82,138.76-124.73,167.51-38.62,79.82,68.88,199.1,78.19,242.84,6.64,31.19,90.82,59.43,138.75,92,41.76,28.39,116.24,45.29,181,42.23,36.79-1.73,163.47-23.45,222.72-55.8,39.2-21.41,35.11-34.08,66.85-56.06,35.08-24.29,51.34-39.8,73.49-72.4,21.52-31.65,20.38-73.82,27.92-95.69C848.09,952,911.81,778.05,883.22,751.32Z" transform="translate(-12.61 -16.13)"/><path d="M853,760.06c-8,3.9-15.29,7.38-13,9.71,25,25.46-59.29,199.09-79.29,230.15-27,41.86-43.9,53.64-106.28,86.17-49.73,25.93-103.6,33.18-152.13,33.83-34.79.47-54.91,29.41-102.72,14.65-20.15-6.23-48.72-25.62-78.45-31.91-34.52-7.31-64-5.72-88.51-19.23-39.8-22-35.72-40.55-58.49-66-30.41-34-51.58-59.57-53.7-74.81-5.56-40.1-30.44-61.44,58.72-160.4,4.27-4.75-2.83-10.58-11.8-18.81-76.39,78.52-83.14,159-78.12,191.16,2.59,16.63,26.93,44.82,60,82.47,24.76,28.2,20.85,48.31,63.6,73.13,26.29,15.26,57.89,14,94.7,22.76,31.69,7.53,62.46,29.27,84,36.5,51.09,17.16,71.78-13.85,108.7-13.57,51.49.4,108.05-8.17,160.24-35.23,65.47-34,85-47.46,112.64-92.37,20.52-33.33,112.66-234.75,85.58-263A66.64,66.64,0,0,0,853,760.06Z" transform="translate(-12.61 -16.13)"/><path d="M395.3,763.83c12.4-.76,62.35-.72,114.69-42.41,1.55-1.24,3.67-.79,3.49,1.2-1.94,21.33-3.39,80,10,126.07,7.8,26.73-125.67,29.23-128.77,4.59a11.59,11.59,0,0,0-.42-2c-1.16-3.22-5.36-23.7-.81-85.68A1.9,1.9,0,0,1,395.3,763.83Z" transform="translate(-12.61 -16.13)"/><path d="M558.39,869.49A8,8,0,0,0,544.81,865c-15.56,15.29-49,24.32-86.9,21.55-35.48-2.59-65.58-14.83-80.09-30.65A8,8,0,0,0,364,860.68a1,1,0,0,1,0,.17c-2,26.94,40,52,93.74,55.89S556.63,902,558.6,875.06A25.28,25.28,0,0,0,558.39,869.49Z" transform="translate(-12.61 -16.13)"/><path d="M588.28,881.82a2.31,2.31,0,0,0-4.24-1.06c-15,22.85-64.57,51.86-126.08,47.37-58.62-4.28-101.7-30.61-116.13-53.92a2.31,2.31,0,0,0-4.26,1v.07C335.4,905,386.37,932.5,458,937.73s128.2-22.24,130.36-51.92A22.16,22.16,0,0,0,588.28,881.82Z" transform="translate(-12.61 -16.13)"/><path d="M799.94,821.36c-1.61-4.32-7.38-3.91-8.91.45-34.5,98.08-95.09,236.78-238.29,263.92-30.65,5.81-56.64,10-95.09,8.56-287.4-11.13-340.76-182.56-261-301.95,3.32-5-5.65-2.21-5.65-2.21-.13.83-3.28,2.85-3.87,3.45-82.66,84.8-47,298.67,275.84,309.5,247.34,8.29,299.9-169,328.52-235.24C793.28,863.65,801.63,825.9,799.94,821.36Z" transform="translate(-12.61 -16.13)"/><path d="M683.38,873.56c0-.07-7.26-5.58-8.45-.87-16.45,65-81.55,140.12-196.65,136.92-163.24-4.53-211.9-80-226.34-140.58-1.12-4.7-8.12-3.68-7.82,1.14,0,.09,0,.18,0,.27,4.15,61.2,50.93,155.57,234.14,160.66C606.5,1034.66,687.53,934.76,683.38,873.56Z" transform="translate(-12.61 -16.13)"/><ellipse cx="294.02" cy="870.44" rx="5.43" ry="20.47" transform="translate(-608.14 1084.15) rotate(-85.82)"/><ellipse cx="300.87" cy="891.56" rx="24.92" ry="7.04" transform="translate(-205.98 74.73) rotate(-13.04)"/><ellipse cx="318.78" cy="917.26" rx="24.92" ry="7.04" transform="translate(-524.34 397.91) rotate(-39.62)"/><ellipse cx="347.86" cy="937.73" rx="23.96" ry="8.98" transform="matrix(0.62, -0.79, 0.79, 0.62, -617.68, 617.87)"/><ellipse cx="385.87" cy="952.77" rx="22.7" ry="8.98" transform="translate(-644.79 794.43) rotate(-60)"/><ellipse cx="425.71" cy="967.97" rx="22.7" ry="11.06" transform="translate(-642.68 1011.24) rotate(-69.48)"/><ellipse cx="468.56" cy="976.05" rx="22.7" ry="11.06" transform="translate(-587.45 1248.95) rotate(-79.84)"/><ellipse cx="417.61" cy="1207.07" rx="20.01" ry="13.63" transform="translate(-843.45 1460.69) rotate(-83.11)"/><ellipse cx="323.75" cy="1187.13" rx="20.01" ry="13.63" transform="translate(-914.15 1058.1) rotate(-69.48)"/><ellipse cx="244.11" cy="1155.04" rx="20.01" ry="13.63" transform="translate(-935.82 962.66) rotate(-69.48)"/><ellipse cx="171.65" cy="1110.62" rx="20.01" ry="13.63" transform="translate(-821.51 545.45) rotate(-51.97)"/><ellipse cx="509.78" cy="1199.6" rx="13.63" ry="20.01" transform="translate(-139.29 46) rotate(-6.21)"/><ellipse cx="603.55" cy="1179.06" rx="13.63" ry="20.01" transform="translate(-352.38 233.09) rotate(-18.3)"/><ellipse cx="682.81" cy="1139.98" rx="13.63" ry="20.01" transform="translate(-530.86 555.31) rotate(-33.75)"/><ellipse cx="453.13" cy="1190.94" rx="10.85" ry="15.93"/><ellipse cx="558.67" cy="1190.48" rx="10.85" ry="15.93" transform="translate(-138.01 51.23) rotate(-6.21)"/><ellipse cx="644.93" cy="1161.16" rx="10.85" ry="15.93" transform="translate(-409.44 321.04) rotate(-22.61)"/><ellipse cx="368.18" cy="1199.6" rx="15.93" ry="10.85" transform="translate(-879.54 1405.04) rotate(-83.11)"/><ellipse cx="283.08" cy="1171.27" rx="15.93" ry="10.85" transform="translate(-919.62 966.26) rotate(-67.39)"/><ellipse cx="202.09" cy="1137.54" rx="15.93" ry="10.85" transform="translate(-871.66 664.44) rotate(-56.63)"/><ellipse cx="146.1" cy="1075.33" rx="15.93" ry="10.85" transform="translate(-615.65 274.05) rotate(-35.92)"/><ellipse cx="124.04" cy="1043.33" rx="14.48" ry="9.86" transform="translate(-601.07 255.02) rotate(-35.92)"/><ellipse cx="106.11" cy="1018.58" rx="11.9" ry="8.1" transform="translate(-589.96 239.8) rotate(-35.92)"/><ellipse cx="90.3" cy="996.75" rx="8.76" ry="5.97" transform="translate(-580.16 226.37) rotate(-35.92)"/><ellipse cx="722.17" cy="1113.18" rx="10.85" ry="15.93" transform="translate(-562.56 719.68) rotate(-40.5)"/><ellipse cx="750.05" cy="1089.37" rx="9.86" ry="14.48" transform="translate(-540.41 732.08) rotate(-40.5)"/><ellipse cx="774.45" cy="1063.8" rx="8.1" ry="11.9" transform="translate(-517.96 741.8) rotate(-40.5)"/><ellipse cx="792.43" cy="1041.3" rx="5.97" ry="8.76" transform="translate(-499.04 748.09) rotate(-40.5)"/><ellipse cx="512.18" cy="967.97" rx="22.7" ry="11.06" transform="translate(-522.86 1344.17) rotate(-83.11)"/><ellipse cx="550.75" cy="958.84" rx="11.06" ry="22.7" transform="translate(-162.03 86.87) rotate(-9.41)"/><ellipse cx="588.93" cy="936.37" rx="8.81" ry="20.96" transform="translate(-522.74 794.94) rotate(-51.33)"/><ellipse cx="612.94" cy="913.98" rx="7.04" ry="21.4" transform="translate(-479.03 1112.39) rotate(-67.39)"/><ellipse cx="706.36" cy="942.06" rx="12.18" ry="22" transform="translate(-389.74 1386.89) rotate(-76.18)"/><ellipse cx="649.46" cy="1006.85" rx="12.18" ry="22" transform="translate(-401.96 393.72) rotate(-27.29)"/><ellipse cx="572.74" cy="1049.1" rx="12.18" ry="22" transform="translate(-371.91 284.68) rotate(-22.61)"/><ellipse cx="477.23" cy="1063.8" rx="22" ry="12.18" transform="translate(-627.94 1454.78) rotate(-86.27)"/><ellipse cx="398.81" cy="1054.43" rx="22" ry="12.18" transform="translate(-734.54 1159.96) rotate(-75.48)"/><ellipse cx="322.26" cy="1027.59" rx="22" ry="12.18" transform="translate(-741.39 776.75) rotate(-60)"/><ellipse cx="255.88" cy="984.05" rx="22" ry="12.18" transform="translate(-605.33 407.83) rotate(-42)"/><ellipse cx="211.43" cy="917.52" rx="22" ry="12.18" transform="translate(-371.96 152.56) rotate(-24.34)"/><ellipse cx="679.16" cy="976.05" rx="14.14" ry="7.04" transform="translate(-519.87 880.26) rotate(-51.33)"/><ellipse cx="610.41" cy="1022.56" rx="14.14" ry="7.04" transform="translate(-413.51 377.56) rotate(-27.29)"/><ellipse cx="523.52" cy="1054.43" rx="14.14" ry="7.04" transform="translate(-178.03 83.71) rotate(-9.41)"/><ellipse cx="436.06" cy="1054.43" rx="7.04" ry="14.14" transform="translate(-675.68 1344.68) rotate(-83.11)"/><ellipse cx="361.33" cy="1040.85" rx="7.04" ry="14.14" transform="translate(-752.75 998.28) rotate(-69.48)"/><ellipse cx="290.02" cy="1004.05" rx="7.04" ry="14.14" transform="translate(-720.62 677.81) rotate(-56.63)"/><ellipse cx="233.21" cy="950.12" rx="7.04" ry="14.14" transform="translate(-501.15 273.55) rotate(-33.75)"/><ellipse cx="206.31" cy="878.38" rx="14.14" ry="7.04" transform="matrix(0.07, -1, 1, 0.07, -697.37, 1004.04)"/><ellipse cx="718.77" cy="904.84" rx="14.14" ry="7.04" transform="translate(-344.15 1370.61) rotate(-76.18)"/><path d="M657.84,566.13c3.55,24.1,1.79,54.71-3.72,77.09-10,40.86-29.27,50.2-53.73,44.19-9.1-2.24-16.43-8.91-21.53-18.5-1,32.66,11.3,62.62,33.37,64.73,16.62,1.59,42.59-5,59.1-46.86C685.4,651.13,679.22,581.7,657.84,566.13Z" transform="translate(-12.61 -16.13)"/><path d="M654.27,243.11c26.51,18.8,100.08,104.32,19.25,295.3a7.66,7.66,0,0,0,4.2,10.1L688.93,553a7.63,7.63,0,0,0,9.91-4.2c15.34-37.67,75.67-215.16-25.7-322.48-2.51-2.66-.92-6.84-4-4.9l-2.37-.49C662.68,223.48,646.91,237.89,654.27,243.11Z" transform="translate(-12.61 -16.13)"/><path d="M692.78,229.87c0,7.73,7.73,18.24,0,18.24s-20.65-11.88-28-18.24c-5.84-5.06,6.27-14,14-14A14,14,0,0,1,692.78,229.87Z" transform="translate(-12.61 -16.13)"/><circle cx="692.33" cy="226.99" r="18.66"/><circle cx="755.52" cy="281.17" r="18.66"/><circle cx="788.17" cy="361.5" r="18.66"/><ellipse cx="765.28" cy="361.31" rx="18.66" ry="28.18"/><ellipse cx="781.96" cy="393.07" rx="18.66" ry="28.18"/><path d="M824.28,462.65c4.29,15-.27,29.4-10.18,32.24s-21.42-7-25.7-22,2.47-25.83,12.38-28.67S820,447.69,824.28,462.65Z" transform="translate(-12.61 -16.13)"/><path d="M829.58,497.67c.75,15.55-7,28.56-17.28,29.06s-19.25-11.7-20-27.24,8.29-24.58,18.59-25.08S828.82,482.13,829.58,497.67Z" transform="translate(-12.61 -16.13)"/><path d="M819.42,490.24c.75,15.55-7,28.56-17.28,29.06s-19.25-11.7-20-27.25,8.3-24.58,18.59-25.08S818.66,474.69,819.42,490.24Z" transform="translate(-12.61 -16.13)"/><path d="M809.32,451.77c.75,15.55-7,28.56-17.27,29.06s-19.26-11.7-20-27.25,6.16-33.42,16.45-33.92S808.56,436.22,809.32,451.77Z" transform="translate(-12.61 -16.13)"/><path d="M805,403.56c.76,15.55-7,28.56-17.27,29.06s-17.82-2.69-18.58-18.24,4.73-42.43,15-42.93S804.27,388,805,403.56Z" transform="translate(-12.61 -16.13)"/><ellipse cx="810.63" cy="437.38" rx="18.66" ry="28.18" transform="translate(-101.68 223.87) rotate(-15.98)"/><circle cx="800.63" cy="393.07" r="18.66"/><circle cx="809.68" cy="428.14" r="18.66"/><circle cx="788.17" cy="424.08" r="18.66"/><circle cx="819.29" cy="458.34" r="18.66"/><circle cx="722.87" cy="441.94" r="18.66"/><circle cx="710.84" cy="506.98" r="18.66"/><path d="M709.67,545c0,10.3-5.17,26.85-15.48,26.85S672.34,555.31,672.34,545a18.67,18.67,0,1,1,37.33,0Z" transform="translate(-12.61 -16.13)"/><path d="M723.45,571.76c0,12.83-9.12,35.67-20.37,35.67s-20.37-22.84-20.37-35.67,9.12-23.22,20.37-23.22S723.45,558.94,723.45,571.76Z" transform="translate(-12.61 -16.13)"/><path d="M729.09,603.9c0,12.82-.4,42.74-11.65,42.74s-29.08-29.92-29.08-42.74,9.12-23.22,20.37-23.22S729.09,591.07,729.09,603.9Z" transform="translate(-12.61 -16.13)"/><path d="M742.77,641.22c0,12.83-14.74,23.23-26,23.23s-20.37-10.4-20.37-23.23S705.53,618,716.78,618,742.77,628.4,742.77,641.22Z" transform="translate(-12.61 -16.13)"/><path d="M788.49,633.25c0,12.82-9.25,21.49-20.36,23.22-26.51,4.12-39-14.73-39-27.55s27.79-18.89,39-18.89S788.49,620.42,788.49,633.25Z" transform="translate(-12.61 -16.13)"/><path d="M787.81,602.21c0,12.83-9.12,23.22-20.37,23.22S747.07,615,747.07,602.21s9.12-35.88,20.37-35.88S787.81,589.39,787.81,602.21Z" transform="translate(-12.61 -16.13)"/><ellipse cx="744.91" cy="562.37" rx="20.37" ry="23.22"/><path d="M783.5,558.56c0,12.82-9.12,23.22-20.36,23.22s-20.37-10.4-20.37-23.22,9.12-27.67,20.37-27.67S783.5,545.73,783.5,558.56Z" transform="translate(-12.61 -16.13)"/><path d="M777.89,523.1c0,12.83-9.12,23.22-20.37,23.22s-20.37-10.39-20.37-23.22,7.25-33.31,18.5-33.31S777.89,510.28,777.89,523.1Z" transform="translate(-12.61 -16.13)"/><path d="M857.44,511.79c0,12.83-9.12,23.22-20.37,23.22s-20.37-10.39-20.37-23.22,7.25-33.31,18.5-33.31S857.44,499,857.44,511.79Z" transform="translate(-12.61 -16.13)"/><path d="M829.74,534.9c0,12.82-9.12,23.22-20.37,23.22S789,547.72,789,534.9s7.25-33.31,18.5-33.31S829.74,522.08,829.74,534.9Z" transform="translate(-12.61 -16.13)"/><path d="M863,546.81c0,12.83-9.12,23.22-20.37,23.22s-20.37-10.39-20.37-23.22,7.25-33.31,18.5-33.31S863,534,863,546.81Z" transform="translate(-12.61 -16.13)"/><path d="M833.6,576.91c0,12.82-9.12,23.22-20.37,23.22s-20.36-10.4-20.36-23.22,7.24-33.31,18.49-33.31S833.6,564.08,833.6,576.91Z" transform="translate(-12.61 -16.13)"/><path d="M866.63,576.91c0,12.82-9.12,23.22-20.37,23.22s-20.37-10.4-20.37-23.22,7.25-33.31,18.5-33.31S866.63,564.08,866.63,576.91Z" transform="translate(-12.61 -16.13)"/><path d="M850,610c0,12.82-9.12,23.22-20.37,23.22s-20.37-10.4-20.37-23.22,7.25-33.32,18.5-33.32S850,597.2,850,610Z" transform="translate(-12.61 -16.13)"/><ellipse cx="730.16" cy="445.62" rx="20.37" ry="23.22"/><ellipse cx="724.54" cy="593.28" rx="20.37" ry="23.22"/><ellipse cx="716.49" cy="570.76" rx="20.37" ry="23.22"/><ellipse cx="716.49" cy="536.22" rx="20.37" ry="23.22"/><ellipse cx="704.83" cy="529.24" rx="20.37" ry="33.63"/><circle cx="729.5" cy="370.83" r="18.66"/><circle cx="730.16" cy="333.5" r="25.33"/><ellipse cx="729.5" cy="321.66" rx="25.33" ry="58.5"/><circle cx="722.87" cy="273.85" r="25.33"/><circle cx="711.53" cy="252.31" r="25.33"/><circle cx="729.5" cy="248.52" r="32.65"/><circle cx="774.18" cy="313.82" r="32.65"/><circle cx="730.16" cy="409.47" r="25.36"/><path d="M774.51,493.15c0,14-14.73,25.36-32.89,25.36s-32.89-11.36-32.89-25.36,14.72-32.77,32.89-32.77S774.51,479.14,774.51,493.15Z" transform="translate(-12.61 -16.13)"/><path d="M134.5,711" transform="translate(-12.61 -16.13)"/><path d="M13.29,523C9,576.38,24.59,705.21,71.08,789.37c6.39-7.18,18.54-29.83,28.28-38C119.78,734.07,128.8,721.7,153.2,711c-21.45-60.73-24.47-93.45-28.85-152.2C108.46,345.54,293.83,158.89,670.06,79a38.54,38.54,0,0,0,30.48-35.23l1.77-27.68C242.6,65.41,31.57,296.52,13.29,523Z" transform="translate(-12.61 -16.13)"/><path d="M1089,595.88c18.24-284-338.34-480.11-468.33-506.28-27.2-5.48-84.05,12.43-83.78,46.45l10.14.82c237.93,5.93,512.38,282,442.56,496.67-28.35,87.19-25.56,60-83.65,115.51l1.08,4.54h0c5.68,9,3.84,62.16,3.15,77.07-1.06,23.19-24.85,61.15-21.33,86.6C997.67,839.79,1084.31,669.35,1089,595.88Z" transform="translate(-12.61 -16.13)"/><ellipse cx="624.52" cy="891.91" rx="5.43" ry="20.47" transform="translate(-323.11 1433.68) rotate(-85.82)"/><path d="M895.44,933.12c-5,44.92-78.66,141.78-94.23,170.52-24.13,44.55-95,120.76-177.18,154.21-69.63,28.34-120.34,25.53-173.3,28.46-138.4,7.65-316.58-73.41-329.26-130.7-4.13-18.65-43.7-64.72-72.25-121.61C25.42,986.55-2.22,887.12,61.86,802.28H52.7c-69.23,126.12-32.88,185.9-8.58,234.28,29.1,57.93,69.38,104.87,73.6,123.84,13,58.3,194.14,141.08,334.71,133.54,53.79-2.88,105.31.06,176-28.65C711.83,1231.4,783.7,1154,808.13,1108.72,826.2,1075.23,916.56,964,895.44,933.12Z" transform="translate(-12.61 -16.13)"/><polygon points="877.91 904.65 896.63 970.25 910.2 932.46 877.91 904.65"/><polygon points="57.34 781.92 4.74 816.99 35.28 773.25 57.34 781.92"/><ellipse cx="561.35" cy="1321.68" rx="12.18" ry="22" transform="translate(-399.3 227.05) rotate(-18.3)"/><ellipse cx="647.98" cy="1293.08" rx="12.18" ry="22" transform="translate(-572.33 481.1) rotate(-30)"/><ellipse cx="467.85" cy="1330.73" rx="22" ry="12.18" transform="translate(-903.07 1694.99) rotate(-86.27)"/><ellipse cx="389.43" cy="1324.71" rx="22" ry="12.18" transform="translate(-995.81 1458.21) rotate(-79.84)"/><ellipse cx="312.26" cy="1310.88" rx="22" ry="12.18" transform="translate(-1037.51 1127.7) rotate(-69.48)"/><ellipse cx="234.05" cy="1286.32" rx="22" ry="12.18" transform="translate(-1009.57 829.73) rotate(-60)"/><ellipse cx="161.34" cy="1249.32" rx="22" ry="12.18" transform="translate(-934.73 590.58) rotate(-51.97)"/><ellipse cx="516.32" cy="1328.72" rx="14.14" ry="7.04" transform="translate(-222.99 86.22) rotate(-9.41)"/><ellipse cx="604.89" cy="1307.55" rx="14.14" ry="7.04" transform="translate(-392.66 240.01) rotate(-18.3)"/><ellipse cx="685.55" cy="1271.21" rx="14.14" ry="7.04" transform="matrix(0.87, -0.5, 0.5, 0.87, -556.37, 496.96)"/><ellipse cx="426.68" cy="1324.71" rx="7.04" ry="14.14" transform="translate(-952.27 1573.21) rotate(-83.11)"/><ellipse cx="351.58" cy="1318.33" rx="7.04" ry="14.14" transform="translate(-1020.7 1415.7) rotate(-79.84)"/><ellipse cx="272.4" cy="1298.34" rx="7.04" ry="14.14" transform="translate(-1059.06 1138.94) rotate(-71.95)"/><ellipse cx="198.73" cy="1268.67" rx="7.04" ry="14.14" transform="translate(-1011.94 790.32) rotate(-60)"/><ellipse cx="126.05" cy="1221.49" rx="7.04" ry="14.14" transform="translate(-926.35 552.1) rotate(-51.97)"/><path class="cls-1" d="M760.9,1275.32a17.35,17.35,0,0,1-6.82,1.38,1.18,1.18,0,0,1-.78-.43,3,3,0,0,1-.5-1.3,21,21,0,0,1-.26-2.61,1,1,0,0,1,.39-1,1.43,1.43,0,0,1,.46-.21,26.58,26.58,0,0,0,6.61-2,24.82,24.82,0,0,0,4.52-2.9,8.35,8.35,0,0,0,2.79-3.46,2.78,2.78,0,0,0-.39-2.94,4.59,4.59,0,0,0-2.64-1.38,5.37,5.37,0,0,0-2.73.25c-1.06.34-2.33.82-3.81,1.46-.17.09-.61.28-1.34.59a22.25,22.25,0,0,1-7.33,1.84,9.25,9.25,0,0,1-5.45-1.43,11.73,11.73,0,0,1-2.64-2.19,8.32,8.32,0,0,1-2-4.56,10.32,10.32,0,0,1,.91-5.3,17.15,17.15,0,0,1,3.82-5.35,14.77,14.77,0,0,1,1.12-1,21.69,21.69,0,0,1,7.1-4c2.85-.88,4.74-.73,5.08.17a8,8,0,0,1,.34,2.29c0,1,.08,1.65.11,1.94a.58.58,0,0,1-.23.48,5.33,5.33,0,0,1-1.8.7,13.27,13.27,0,0,0-2.84,1.08,21.86,21.86,0,0,0-3.44,2.16,9.53,9.53,0,0,0-2.33,2.62,5.37,5.37,0,0,0-.64,2.54,2.86,2.86,0,0,0,.66,1.91,3.3,3.3,0,0,0,2.85,1,18,18,0,0,0,4.07-.75c1.33-.39,2.8-.89,4.39-1.45s3.19-1.06,4.34-1.35a9,9,0,0,1,3.33-.12,9.24,9.24,0,0,1,3.27,1,10.05,10.05,0,0,1,2.9,2.28,8.73,8.73,0,0,1,2.16,5.08,10.31,10.31,0,0,1-1.24,5.54,16.05,16.05,0,0,1-4.37,5.11A27.43,27.43,0,0,1,760.9,1275.32Z" transform="translate(-12.61 -16.13)"/><path class="cls-1" d="M795.13,1223c-1.28,1.34-1.93,2-3.23,3.33-6.59-4.36-9.87-6.47-16.37-10.58a1,1,0,0,0-.66-.08,1.18,1.18,0,0,0-.6.3c-3.14,3.16-4.73,4.71-7.95,7.78a1.08,1.08,0,0,0-.33.63,1.32,1.32,0,0,0,.08.69q8.58,16.68,16.66,33.63a.65.65,0,0,0,.4.31.5.5,0,0,0,.47-.12c1.61-1.41,2.4-2.11,4-3.54a1.23,1.23,0,0,0,.35-.64,1,1,0,0,0-.11-.76c-1.85-3.84-2.77-5.74-4.62-9.51a1.42,1.42,0,0,1-.14-1,1.56,1.56,0,0,1,.46-.88c3.07-2.86,4.59-4.31,7.59-7.25a1.44,1.44,0,0,1,.87-.4,1.27,1.27,0,0,1,.93.24c3.44,2.32,5.16,3.49,8.62,5.88a.82.82,0,0,0,.67.15,1.09,1.09,0,0,0,.65-.29c1.51-1.51,2.26-2.26,3.76-3.79a.57.57,0,0,0,0-.86l-.11-.12c-3.93-2.7-5.89-4-9.79-6.63.89-.9,1.33-1.36,2.21-2.27a1.12,1.12,0,0,0,0-1.5l-2.41-2.71A.92.92,0,0,0,795.13,1223ZM781,1237a1,1,0,0,1-.73.32.91.91,0,0,1-.66-.35l-.14-.23c-2.06-4.15-3.09-6.2-5.16-10.26a1.19,1.19,0,0,1-.15-.89,1.66,1.66,0,0,1,.45-.87l.23-.22a1.41,1.41,0,0,1,.86-.4,1,1,0,0,1,.85.21c3.78,2.4,5.68,3.62,9.49,6.1a1,1,0,0,1,.44.78,1,1,0,0,1-.35.87C784.05,1234.09,783,1235.08,781,1237Z" transform="translate(-12.61 -16.13)"/><path class="cls-1" d="M812.29,1230.72a.89.89,0,0,1-.67-.31q-11.91-13.64-24.26-26.87a1,1,0,0,1-.25-.7,1.12,1.12,0,0,1,.28-.76c3-3.34,4.51-5,7.44-8.47a11.86,11.86,0,0,1,5-3.57,9.87,9.87,0,0,1,5.81-.32,10.49,10.49,0,0,1,5.2,3.13,12.31,12.31,0,0,1,2.8,4.88,16.68,16.68,0,0,1,.65,5.87,1,1,0,0,0,.27.78.71.71,0,0,0,.22.16.26.26,0,0,1,.15.08c5.48,2.28,8.24,3.45,13.77,5.85a1.69,1.69,0,0,1,.6.42.71.71,0,0,1,0,1c-1.23,1.49-1.86,2.22-3.1,3.69a2.82,2.82,0,0,1-.66.61.87.87,0,0,1-.72,0c-5-2.19-7.5-3.27-12.47-5.37a.54.54,0,0,0-.56,0,3.91,3.91,0,0,0-.81.68c-1.14,1.3-1.72,2-2.88,3.25a2.12,2.12,0,0,0-.59,1,1,1,0,0,0,.35.83c3.24,3.61,4.87,5.43,8.13,9.14a1.19,1.19,0,0,1,0,1.53c-1.18,1.29-1.77,1.93-3,3.2A.86.86,0,0,1,812.29,1230.72ZM806.4,1206a5.56,5.56,0,0,0,1.35-3.85,5.47,5.47,0,0,0-1.44-3.77,4.26,4.26,0,0,0-3.42-1.46,4.53,4.53,0,0,0-3.33,1.69c-1.31,1.52-2,2.28-3.29,3.78a1,1,0,0,0,.08,1.52c2.2,2.36,3.29,3.55,5.49,6a.81.81,0,0,0,.57.3.72.72,0,0,0,.56-.26C804.35,1208.37,805,1207.59,806.4,1206Z" transform="translate(-12.61 -16.13)"/><path class="cls-1" d="M835.88,1203.19a.82.82,0,0,1-.67-.29q-12.32-13.58-25.08-26.75a1.14,1.14,0,0,1-.31-.78,1.31,1.31,0,0,1,.22-.78c1.35-1.79,2-2.69,3.35-4.5a.82.82,0,0,1,.61-.33.81.81,0,0,1,.68.28q12.86,13.15,25.28,26.73a1.27,1.27,0,0,1,.31.75,1.09,1.09,0,0,1-.22.8c-1.39,1.82-2.09,2.72-3.5,4.52A.83.83,0,0,1,835.88,1203.19Z" transform="translate(-12.61 -16.13)"/><path class="cls-1" d="M847.14,1188.32a.81.81,0,0,1-.66-.28q-12.59-13.57-25.58-26.74a1.14,1.14,0,0,1-.31-.73,1.21,1.21,0,0,1,.21-.81c2.58-3.75,3.85-5.65,6.33-9.48a11.15,11.15,0,0,1,4.49-4.12,8.55,8.55,0,0,1,5.53-.73,10.11,10.11,0,0,1,5.26,3,13.74,13.74,0,0,1,3.12,5,19.11,19.11,0,0,1,1.15,6.15,1.2,1.2,0,0,0,.34.8.51.51,0,0,0,.22.16.53.53,0,0,1,.15.07c7.5,2.19,11.27,3.32,18.85,5.66a1.68,1.68,0,0,1,.61.41.82.82,0,0,1,.06,1.08c-1,1.66-1.57,2.49-2.62,4.14a2.77,2.77,0,0,1-.58.69.75.75,0,0,1-.68,0c-7.07-2.18-10.59-3.24-17.58-5.28a.5.5,0,0,0-.55,0,4.4,4.4,0,0,0-.71.77c-1,1.46-1.46,2.19-2.45,3.64a2.33,2.33,0,0,0-.48,1.1,1.17,1.17,0,0,0,.41.85c3.42,3.59,5.13,5.41,8.57,9.09a1.39,1.39,0,0,1,.1,1.62c-1,1.44-1.52,2.17-2.55,3.6A.83.83,0,0,1,847.14,1188.32Zm-7.82-25.71a6.76,6.76,0,0,0-.79-8,3.93,3.93,0,0,0-3.39-1.31,4.14,4.14,0,0,0-3,2c-1.11,1.7-1.67,2.54-2.8,4.23a1.14,1.14,0,0,0,.22,1.59c2.31,2.35,3.47,3.54,5.78,5.93a.78.78,0,0,0,.57.28.61.61,0,0,0,.51-.32C837.57,1165.24,838.16,1164.37,839.32,1162.61Z" transform="translate(-12.61 -16.13)"/><path class="cls-1" d="M867.23,1157.59a.81.81,0,0,1-.66-.26q-13-13.47-26.45-26.53a1.22,1.22,0,0,1-.36-.8,1.3,1.3,0,0,1,.13-.83c1.12-2,1.68-3,2.78-5a.71.71,0,0,1,.55-.39.76.76,0,0,1,.68.25q13.53,13,26.64,26.48a1.4,1.4,0,0,1,.37.77,1.18,1.18,0,0,1-.14.85c-1.16,2-1.75,3-2.93,5A.8.8,0,0,1,867.23,1157.59Z" transform="translate(-12.61 -16.13)"/><path class="cls-1" d="M736.62,1237a5.19,5.19,0,0,1,0,2,5.41,5.41,0,0,1-.75,1.88,6.51,6.51,0,0,1-1.49,1.63,6.77,6.77,0,0,1-2.22,1.17,6.68,6.68,0,0,1-2.47.29,5.4,5.4,0,0,1-1.53-.3,5.09,5.09,0,0,1-1.32-.73,9.53,9.53,0,0,1-1.37-1.25c-.48-.5-1-1.1-1.67-1.8s-1.16-1.31-1.61-1.83a9.72,9.72,0,0,1-1.06-1.44,4.8,4.8,0,0,1-.53-1.32,4.55,4.55,0,0,1,0-1.44,5.65,5.65,0,0,1,.74-2.18,6.46,6.46,0,0,1,1.59-1.84,7.14,7.14,0,0,1,2-1.15,6.14,6.14,0,0,1,2-.42,6,6,0,0,1,2,.3,6.94,6.94,0,0,1,2,1l-1.06.88a5.13,5.13,0,0,0-3.13-1,4.92,4.92,0,0,0-3,1.17,5.24,5.24,0,0,0-1.2,1.38,4.2,4.2,0,0,0-.57,1.67,3.19,3.19,0,0,0,.05,1.16,3.88,3.88,0,0,0,.48,1.14,10.45,10.45,0,0,0,1,1.32c.41.48.91,1.06,1.51,1.72s1.13,1.23,1.58,1.69a10.19,10.19,0,0,0,1.25,1.13,4.54,4.54,0,0,0,1.13.65,4.33,4.33,0,0,0,1.24.26,5,5,0,0,0,1.88-.24,5.1,5.1,0,0,0,1.66-.88,4.37,4.37,0,0,0,1.15-5.83l1-.84A6.31,6.31,0,0,1,736.62,1237Z" transform="translate(-12.61 -16.13)"/><path class="cls-1" d="M749.22,1225.63a5.39,5.39,0,0,1,.27,2.18,5.8,5.8,0,0,1-.66,2.16,6.79,6.79,0,0,1-1.58,1.94,6.92,6.92,0,0,1-2.17,1.3,6,6,0,0,1-2.27.38,5.56,5.56,0,0,1-2.18-.51,6,6,0,0,1-1.88-1.41c-3.09-3.39-4.63-5.07-7.7-8.36l1-.88c3,3.25,4.54,4.9,7.59,8.25a5.82,5.82,0,0,0,1.56,1.2,4.2,4.2,0,0,0,1.74.48,4.43,4.43,0,0,0,1.78-.28,5.74,5.74,0,0,0,3-2.57,4.24,4.24,0,0,0,.49-1.7,4,4,0,0,0-.28-1.75,5.32,5.32,0,0,0-1.06-1.65c-3.07-3.35-4.61-5-7.66-8.25l1-.9c3.1,3.3,4.66,5,7.79,8.37A5.83,5.83,0,0,1,749.22,1225.63Z" transform="translate(-12.61 -16.13)"/><path class="cls-1" d="M755.68,1224.2c-4.67-5.11-7-7.61-11.61-12.5.4-.36.59-.55,1-.92,4.31,4.56,6.48,6.89,10.83,11.64,2.8-2.59,4.18-3.9,6.91-6.55l.8.86C760.47,1219.76,758.89,1221.25,755.68,1224.2Z" transform="translate(-12.61 -16.13)"/><path class="cls-1" d="M757,1200.7c4.38,4.57,6.58,6.9,11,11.67l-1,1c-4.42-4.77-6.62-7.1-11-11.67-1.5,1.51-2.25,2.25-3.76,3.74l-.79-.82c3.42-3.36,5.1-5.07,8.42-8.54l.79.83C759.25,1198.41,758.5,1199.18,757,1200.7Z" transform="translate(-12.61 -16.13)"/><path class="cls-1" d="M779.84,1195.05a6,6,0,0,1,.42,2.29,6.34,6.34,0,0,1-.48,2.32,7.08,7.08,0,0,1-1.39,2.14,6.61,6.61,0,0,1-2,1.51,5.49,5.49,0,0,1-2.16.53,5,5,0,0,1-2.14-.41,5.7,5.7,0,0,1-1.91-1.36c-3.22-3.41-4.83-5.08-8-8.39.38-.39.56-.59.93-1,3.15,3.26,4.74,4.91,7.92,8.26a5.39,5.39,0,0,0,1.58,1.18,3.82,3.82,0,0,0,1.71.4,4,4,0,0,0,1.7-.4,5.1,5.1,0,0,0,1.58-1.19,5.55,5.55,0,0,0,1.1-1.7,5.07,5.07,0,0,0,.35-1.82,4.75,4.75,0,0,0-.4-1.83,5.68,5.68,0,0,0-1.14-1.68c-3.21-3.35-4.8-5-8-8.26l.9-1c3.24,3.3,4.86,5,8.12,8.38A6.22,6.22,0,0,1,779.84,1195.05Z" transform="translate(-12.61 -16.13)"/><path class="cls-1" d="M792.86,1185.06c-3.36-1-5-1.53-8.39-2.52-1.27,1.52-1.91,2.27-3.2,3.77,2.23,2.3,3.35,3.47,5.6,5.82l-.9,1c-4.87-5.11-7.29-7.61-12.1-12.49,1.77-2.07,2.65-3.11,4.39-5.2a6.29,6.29,0,0,1,1.5-1.35,4.21,4.21,0,0,1,1.66-.64,3.51,3.51,0,0,1,1.71.2,4.62,4.62,0,0,1,1.65,1.11,5,5,0,0,1,1.51,3.13,5.75,5.75,0,0,1-.85,3.42c3.37,1,5,1.48,8.44,2.49ZM782.66,1175a2.5,2.5,0,0,0-1.29-.14,3.13,3.13,0,0,0-1.25.51,5.82,5.82,0,0,0-1.16,1.08c-1.35,1.62-2,2.43-3.4,4,2,2,2.93,3,4.89,5,1.38-1.6,2.06-2.41,3.42-4a6.23,6.23,0,0,0,.88-1.37,3.9,3.9,0,0,0,.35-1.43,3.47,3.47,0,0,0-.25-1.42,4.13,4.13,0,0,0-.92-1.34A3.79,3.79,0,0,0,782.66,1175Z" transform="translate(-12.61 -16.13)"/><path class="cls-1" d="M803.22,1172c-1.59-.74-2.39-1.11-4-1.83-2,2.67-3.08,4-5.18,6.63l2,4.31-.93,1.14c-3.26-7.17-4.9-10.7-8.19-17.67l.73-1c6.53,2.79,9.81,4.23,16.43,7.2Zm-14.65-6.66c2,4.07,3,6.13,4.93,10.27,1.87-2.36,2.8-3.55,4.64-6C794.29,1167.93,792.38,1167.06,788.57,1165.37Z" transform="translate(-12.61 -16.13)"/></svg>