<?xml version="1.0" encoding="utf-8"?>
<!-- Generator: Adobe Illustrator 24.2.3, SVG Export Plug-In . SVG Version: 6.00 Build 0)  -->
<svg version="1.1" id="Capa_1" xmlns="http://www.w3.org/2000/svg" xmlns:xlink="http://www.w3.org/1999/xlink" x="0px" y="0px"
	 viewBox="0 0 1102.31 1410.13" style="enable-background:new 0 0 1102.31 1410.13;" xml:space="preserve">
<style type="text/css">
	.st0{fill:#231F20;}
</style>
<g>
	<path d="M661.9,296.39c-18.56-34.46-58.1-51.96-96.13-42.68c-54.91,13.4-137.49,57.26-208.52,192.56
		c-118.77,226.22-40.72,279.39,14.7,300.88c55.65,21.58,184.48-41.85,255.12-161.75C686,485.38,706.87,379.85,661.9,296.39z"/>
	<path d="M725.96,1284.12c21.52,8.96,16.13,24.76-19.6,40.74c-67.46,30.16-189.87,85.72-341.19,64.39
		c-246.09-34.69-310.61-156.55-277.26-156.77c9.75-0.07,117.58,142.66,332.64,137.92C653.35,1365.27,713.59,1278.97,725.96,1284.12z
		"/>
	<path d="M883.22,751.32c-1.33-1.24-3.16-2.32-5.45-3.25c18.1,35.34-43.02,200.68-56.54,231.72c-8.86,20.35-2.36,57.43-22.23,86.17
		c-21.82,31.55-37.73,47.41-71.87,71.05c-30.89,21.38-26.9,32.4-65.05,53.24c-57.65,31.51-180.83,52.83-216.6,54.58
		c-62.93,3.09-135.29-13.16-175.83-40.62c-46.52-31.5-128.29-58.73-134.69-88.99C126,1072.8,25.85,969.09,63.54,891.56
		c12.13-24.95,63.72-140.84,119.13-167.05c-4.04-0.41-7.88-0.47-11.51-0.12c-63,6.08-110.82,138.76-124.73,167.51
		c-38.61,79.82,68.88,199.1,78.19,242.84c6.64,31.2,90.83,59.43,138.75,92c41.77,28.38,116.25,45.28,180.98,42.23
		c36.79-1.74,163.48-23.45,222.72-55.8c39.2-21.41,35.12-34.08,66.85-56.06c35.08-24.29,51.34-39.8,73.49-72.4
		c21.51-31.65,20.38-73.82,27.92-95.69C848.09,952.02,911.81,778.05,883.22,751.32z"/>
	<g>
		<path d="M852.95,760.06c-8,3.91-15.29,7.38-13,9.72c24.96,25.45-59.29,199.08-79.29,230.14c-26.96,41.86-43.89,53.64-106.28,86.17
			c-49.73,25.93-103.6,33.18-152.13,33.84c-34.79,0.47-54.91,29.41-102.72,14.64c-20.15-6.22-48.72-25.61-78.45-31.91
			c-34.52-7.31-64.03-5.71-88.51-19.23c-39.8-21.98-35.72-40.55-58.49-66c-30.41-33.97-51.58-59.58-53.69-74.82
			c-5.57-40.09-30.44-61.44,58.72-160.4c4.27-4.74-2.83-10.57-11.8-18.8c-76.39,78.52-83.14,159-78.12,191.16
			c2.59,16.63,26.93,44.82,59.99,82.47c24.76,28.2,20.85,48.31,63.6,73.13c26.29,15.26,57.89,14.01,94.69,22.75
			c31.7,7.53,62.47,29.28,84,36.51c51.08,17.16,71.78-13.86,108.7-13.57c51.49,0.4,108.05-8.17,160.24-35.23
			c65.47-33.95,84.99-47.45,112.64-92.37c20.52-33.33,112.66-234.75,85.58-263.01C857.03,763.6,855.14,761.87,852.95,760.06z"/>
	</g>
	<path d="M395.3,763.83c12.4-0.75,62.35-0.71,114.69-42.41c1.56-1.24,3.68-0.79,3.5,1.19c-1.94,21.34-3.4,80,10.04,126.08
		c7.79,26.72-125.67,29.23-128.77,4.59c-0.07-0.57-0.23-1.48-0.43-2.01c-1.16-3.22-5.35-23.7-0.8-85.68
		C393.59,764.64,394.35,763.88,395.3,763.83z"/>
	<path d="M558.39,869.49c-0.97-6.48-8.9-9.04-13.57-4.45c-15.57,15.29-49,24.32-86.91,21.55c-35.48-2.59-65.57-14.83-80.09-30.65
		c-4.66-5.07-13.25-2.13-13.8,4.73c0,0.06-0.01,0.11-0.01,0.17c-1.97,26.95,40,51.97,93.74,55.9
		c53.74,3.92,98.89-14.74,100.86-41.68C558.74,873.19,558.66,871.33,558.39,869.49z"/>
	<path d="M588.28,881.82c-0.22-2.19-3.03-2.9-4.24-1.07c-15.04,22.85-64.57,51.86-126.08,47.37
		c-58.62-4.28-101.7-30.61-116.13-53.92c-1.16-1.88-4.09-1.19-4.26,1.02c0,0.02,0,0.05-0.01,0.07
		c-2.17,29.68,48.81,57.2,120.42,62.43c71.61,5.23,128.2-22.23,130.36-51.91C588.44,884.48,588.42,883.15,588.28,881.82z"/>
	<path d="M799.94,821.36c-1.61-4.32-7.38-3.91-8.91,0.44c-34.5,98.08-95.09,236.79-238.29,263.93
		c-30.65,5.81-56.64,10.05-95.09,8.56c-287.41-11.14-340.76-182.56-261.02-301.95c3.31-4.96-5.66-2.21-5.66-2.21
		c-0.13,0.83-3.28,2.85-3.86,3.45c-82.67,84.79-47.01,298.66,275.84,309.49c247.34,8.29,299.9-169.04,328.52-235.23
		C793.28,863.65,801.63,825.9,799.94,821.36z"/>
	<path d="M683.38,873.56c0-0.07-7.26-5.58-8.45-0.87c-16.45,65.04-81.55,140.12-196.65,136.92
		c-163.24-4.54-211.9-80.03-226.34-140.58c-1.12-4.7-8.13-3.68-7.82,1.14c0.01,0.09,0.01,0.18,0.02,0.27
		c4.15,61.2,50.93,155.57,234.14,160.66C606.5,1034.66,687.53,934.76,683.38,873.56z"/>
	<ellipse transform="matrix(0.0728 -0.9973 0.9973 0.0728 -595.5297 1100.2784)" cx="294.02" cy="870.44" rx="5.43" ry="20.47"/>
	<ellipse transform="matrix(0.9742 -0.2256 0.2256 0.9742 -193.3697 90.8552)" cx="300.87" cy="891.56" rx="24.92" ry="7.04"/>
	<ellipse transform="matrix(0.7703 -0.6377 0.6377 0.7703 -511.7328 414.0336)" cx="318.78" cy="917.26" rx="24.92" ry="7.04"/>
	<ellipse transform="matrix(0.6161 -0.7877 0.7877 0.6161 -605.0773 633.9977)" cx="347.86" cy="937.73" rx="23.96" ry="8.98"/>
	<ellipse transform="matrix(0.5 -0.866 0.866 0.5 -632.1866 810.5598)" cx="385.87" cy="952.77" rx="22.7" ry="8.98"/>
	<ellipse transform="matrix(0.3505 -0.9366 0.9366 0.3505 -630.0697 1027.3706)" cx="425.71" cy="967.97" rx="22.7" ry="11.06"/>
	<ellipse transform="matrix(0.1764 -0.9843 0.9843 0.1764 -574.8431 1265.0751)" cx="468.56" cy="976.05" rx="22.7" ry="11.06"/>
	<ellipse transform="matrix(0.12 -0.9928 0.9928 0.12 -830.8461 1476.8162)" cx="417.61" cy="1207.07" rx="20.01" ry="13.63"/>
	<ellipse transform="matrix(0.3505 -0.9366 0.9366 0.3505 -901.5431 1074.2233)" cx="323.75" cy="1187.13" rx="20.01" ry="13.63"/>
	<ellipse transform="matrix(0.3505 -0.9366 0.9366 0.3505 -923.2133 978.7928)" cx="244.11" cy="1155.04" rx="20.01" ry="13.63"/>
	<ellipse transform="matrix(0.6161 -0.7877 0.7877 0.6161 -808.904 561.5819)" cx="171.65" cy="1110.62" rx="20.01" ry="13.63"/>
	<ellipse transform="matrix(0.9941 -0.1081 0.1081 0.9941 -126.6778 62.1305)" cx="509.78" cy="1199.6" rx="13.63" ry="20.01"/>
	<ellipse transform="matrix(0.9494 -0.3141 0.3141 0.9494 -339.7677 249.2191)" cx="603.55" cy="1179.06" rx="13.63" ry="20.01"/>
	<ellipse transform="matrix(0.8315 -0.5556 0.5556 0.8315 -518.2516 571.4428)" cx="682.81" cy="1139.98" rx="13.63" ry="20.01"/>
	<ellipse cx="465.74" cy="1207.07" rx="10.85" ry="15.93"/>
	<ellipse transform="matrix(0.9941 -0.1081 0.1081 0.9941 -125.4056 67.3612)" cx="558.67" cy="1190.48" rx="10.85" ry="15.93"/>
	<ellipse transform="matrix(0.9232 -0.3844 0.3844 0.9232 -396.8308 337.17)" cx="644.93" cy="1161.16" rx="10.85" ry="15.93"/>
	<ellipse transform="matrix(0.12 -0.9928 0.9928 0.12 -866.9292 1421.1704)" cx="368.18" cy="1199.6" rx="15.93" ry="10.85"/>
	<ellipse transform="matrix(0.3844 -0.9232 0.9232 0.3844 -907.0153 982.384)" cx="283.08" cy="1171.27" rx="15.93" ry="10.85"/>
	<ellipse transform="matrix(0.5501 -0.8351 0.8351 0.5501 -859.0515 680.5633)" cx="202.09" cy="1137.54" rx="15.93" ry="10.85"/>
	<ellipse transform="matrix(0.8099 -0.5866 0.5866 0.8099 -603.0432 290.1738)" cx="146.1" cy="1075.33" rx="15.93" ry="10.85"/>
	<ellipse transform="matrix(0.8099 -0.5866 0.5866 0.8099 -588.4626 271.1492)" cx="124.04" cy="1043.33" rx="14.48" ry="9.86"/>
	<ellipse transform="matrix(0.8099 -0.5866 0.5866 0.8099 -577.3513 255.9245)" cx="106.11" cy="1018.58" rx="11.9" ry="8.1"/>
	<ellipse transform="matrix(0.8099 -0.5866 0.5866 0.8099 -567.5525 242.4981)" cx="90.3" cy="996.75" rx="8.76" ry="5.97"/>
	<ellipse transform="matrix(0.7604 -0.6495 0.6495 0.7604 -549.9506 735.8063)" cx="722.17" cy="1113.18" rx="10.85" ry="15.93"/>
	<ellipse transform="matrix(0.7604 -0.6495 0.6495 0.7604 -527.7994 748.2088)" cx="750.05" cy="1089.37" rx="9.86" ry="14.48"/>
	<ellipse transform="matrix(0.7604 -0.6495 0.6495 0.7604 -505.3506 757.9272)" cx="774.45" cy="1063.8" rx="8.1" ry="11.9"/>
	<ellipse transform="matrix(0.7604 -0.6495 0.6495 0.7604 -486.4282 764.2152)" cx="792.43" cy="1041.3" rx="5.97" ry="8.76"/>
	<ellipse transform="matrix(0.12 -0.9928 0.9928 0.12 -510.2532 1360.3016)" cx="512.18" cy="967.97" rx="22.7" ry="11.06"/>
	<ellipse transform="matrix(0.9865 -0.1636 0.1636 0.9865 -149.4203 103.0001)" cx="550.75" cy="958.84" rx="11.06" ry="22.7"/>
	<ellipse transform="matrix(0.6249 -0.7807 0.7807 0.6249 -510.1294 811.068)" cx="588.93" cy="936.37" rx="8.81" ry="20.96"/>
	<ellipse transform="matrix(0.3844 -0.9232 0.9232 0.3844 -466.4191 1128.5149)" cx="612.94" cy="913.98" rx="7.04" ry="21.4"/>
	<g>
		<ellipse transform="matrix(0.2388 -0.9711 0.9711 0.2388 -377.1315 1403.0184)" cx="706.36" cy="942.06" rx="12.18" ry="22"/>
		<ellipse transform="matrix(0.8887 -0.4585 0.4585 0.8887 -389.3535 409.8463)" cx="649.46" cy="1006.85" rx="12.18" ry="22"/>
		<ellipse transform="matrix(0.9232 -0.3844 0.3844 0.9232 -359.3013 300.8054)" cx="572.74" cy="1049.1" rx="12.18" ry="22"/>
		<ellipse transform="matrix(0.065 -0.9979 0.9979 0.065 -615.33 1470.9044)" cx="477.23" cy="1063.8" rx="22" ry="12.18"/>
		<ellipse transform="matrix(0.2508 -0.968 0.968 0.2508 -721.9366 1176.0856)" cx="398.81" cy="1054.43" rx="22" ry="12.18"/>
		<ellipse transform="matrix(0.5 -0.866 0.866 0.5 -728.7863 792.8826)" cx="322.26" cy="1027.59" rx="22" ry="12.18"/>
		<ellipse transform="matrix(0.7432 -0.6691 0.6691 0.7432 -592.7259 423.9629)" cx="255.88" cy="984.05" rx="22" ry="12.18"/>
		<ellipse transform="matrix(0.9111 -0.4121 0.4121 0.9111 -359.3518 168.6839)" cx="211.43" cy="917.52" rx="22" ry="12.18"/>
		<ellipse transform="matrix(0.6249 -0.7807 0.7807 0.6249 -507.2591 896.3925)" cx="679.16" cy="976.05" rx="14.14" ry="7.04"/>
		<ellipse transform="matrix(0.8887 -0.4585 0.4585 0.8887 -400.9012 393.689)" cx="610.41" cy="1022.56" rx="14.14" ry="7.04"/>
		<ellipse transform="matrix(0.9865 -0.1636 0.1636 0.9865 -165.4228 99.8346)" cx="523.52" cy="1054.43" rx="14.14" ry="7.04"/>
		<ellipse transform="matrix(0.12 -0.9928 0.9928 0.12 -663.0776 1360.8116)" cx="436.06" cy="1054.43" rx="7.04" ry="14.14"/>
		<ellipse transform="matrix(0.3505 -0.9366 0.9366 0.3505 -740.1399 1014.4116)" cx="361.33" cy="1040.85" rx="7.04" ry="14.14"/>
		<ellipse transform="matrix(0.5501 -0.8351 0.8351 0.5501 -708.0109 693.9348)" cx="290.02" cy="1004.05" rx="7.04" ry="14.14"/>
		<ellipse transform="matrix(0.8315 -0.5556 0.5556 0.8315 -488.5425 289.6739)" cx="233.21" cy="950.12" rx="7.04" ry="14.14"/>
		<ellipse transform="matrix(0.0728 -0.9973 0.9973 0.0728 -684.7595 1020.1671)" cx="206.31" cy="878.38" rx="14.14" ry="7.04"/>
		<ellipse transform="matrix(0.2388 -0.9711 0.9711 0.2388 -331.5401 1386.7334)" cx="718.77" cy="904.84" rx="14.14" ry="7.04"/>
	</g>
	<path d="M657.84,566.13c3.55,24.1,1.78,54.71-3.72,77.09c-10.05,40.85-29.28,50.19-53.73,44.18c-9.1-2.24-16.43-8.9-21.53-18.49
		c-0.98,32.65,11.3,62.61,33.37,64.72c16.62,1.59,42.59-5,59.1-46.86C685.4,651.13,679.22,581.7,657.84,566.13z"/>
	<g>
		<path d="M654.27,243.11c26.51,18.79,100.08,104.32,19.25,295.3c-1.67,3.95,0.21,8.5,4.19,10.09l11.22,4.49
			c3.9,1.56,8.33-0.32,9.91-4.21c15.33-37.67,75.66-215.16-25.71-322.48c-2.51-2.65-0.92-6.83-4.01-4.89l-2.37-0.5
			C662.68,223.48,646.91,237.89,654.27,243.11z"/>
		<path d="M692.78,229.87c0,7.73,7.73,18.24,0,18.24c-7.73,0-20.64-11.88-28-18.24c-5.85-5.06,6.27-14,14-14
			C686.51,215.87,692.78,222.14,692.78,229.87z"/>
		<circle cx="704.94" cy="243.11" r="18.66"/>
		<circle cx="768.13" cy="297.29" r="18.66"/>
		<circle cx="800.78" cy="377.62" r="18.66"/>
		<ellipse cx="777.89" cy="377.43" rx="18.66" ry="28.18"/>
		<ellipse cx="794.57" cy="409.2" rx="18.66" ry="28.18"/>
		<path d="M824.28,462.65c4.28,14.96-0.28,29.4-10.19,32.23c-9.91,2.84-21.42-6.99-25.7-21.96s2.47-25.82,12.38-28.66
			S820,447.69,824.28,462.65z"/>
		<path d="M829.58,497.67c0.76,15.55-6.98,28.56-17.27,29.06c-10.3,0.5-19.25-11.7-20.01-27.25c-0.76-15.55,8.3-24.58,18.59-25.08
			C821.18,473.91,828.82,482.13,829.58,497.67z"/>
		<path d="M819.42,490.24c0.76,15.55-6.98,28.56-17.27,29.06c-10.3,0.5-19.25-11.7-20.01-27.25c-0.76-15.55,8.3-24.58,18.59-25.08
			S818.66,474.69,819.42,490.24z"/>
		<path d="M809.32,451.77c0.76,15.55-6.98,28.56-17.27,29.06s-19.25-11.7-20.01-27.25c-0.76-15.55,6.16-33.42,16.46-33.92
			S808.56,436.22,809.32,451.77z"/>
		<path d="M805.02,403.56c0.76,15.55-6.98,28.56-17.27,29.06s-17.82-2.69-18.58-18.24c-0.76-15.55,4.73-42.42,15.03-42.92
			S804.27,388.01,805.02,403.56z"/>
		<ellipse transform="matrix(0.9614 -0.2752 0.2752 0.9614 -89.0719 239.9935)" cx="810.63" cy="437.38" rx="18.66" ry="28.18"/>
		<circle cx="813.23" cy="409.2" r="18.66"/>
		<circle cx="822.28" cy="444.26" r="18.66"/>
		<circle cx="800.78" cy="440.2" r="18.66"/>
		<circle cx="831.9" cy="474.47" r="18.66"/>
		<circle cx="735.48" cy="458.07" r="18.66"/>
		<circle cx="723.45" cy="523.1" r="18.66"/>
		<path d="M709.67,545.01c0,10.31-5.17,26.86-15.48,26.86s-21.85-16.55-21.85-26.86s8.36-18.66,18.66-18.66
			S709.67,534.7,709.67,545.01z"/>
		<path d="M723.45,571.76c0,12.82-9.12,35.67-20.37,35.67s-20.37-22.84-20.37-35.67s9.12-23.22,20.37-23.22
			S723.45,558.94,723.45,571.76z"/>
		<path d="M729.09,603.9c0,12.82-0.41,42.74-11.66,42.74c-11.25,0-29.08-29.92-29.08-42.74s9.12-23.22,20.37-23.22
			S729.09,591.07,729.09,603.9z"/>
		<path d="M742.77,641.22c0,12.82-14.74,23.22-25.99,23.22s-20.37-10.4-20.37-23.22S705.53,618,716.78,618
			S742.77,628.4,742.77,641.22z"/>
		<path d="M788.49,633.25c0,12.82-9.25,21.49-20.37,23.22c-26.51,4.12-39.03-14.72-39.03-27.55s27.78-18.89,39.03-18.89
			S788.49,620.42,788.49,633.25z"/>
		<path d="M787.81,602.21c0,12.82-9.12,23.22-20.37,23.22s-20.37-10.4-20.37-23.22s9.12-35.88,20.37-35.88
			S787.81,589.39,787.81,602.21z"/>
		<ellipse cx="757.52" cy="578.5" rx="20.37" ry="23.22"/>
		<path d="M783.5,558.56c0,12.82-9.12,23.22-20.37,23.22s-20.37-10.4-20.37-23.22s9.12-27.67,20.37-27.67S783.5,545.73,783.5,558.56
			z"/>
		<path d="M777.89,523.1c0,12.82-9.12,23.22-20.37,23.22c-11.25,0-20.37-10.4-20.37-23.22s7.25-33.31,18.5-33.31
			S777.89,510.28,777.89,523.1z"/>
		<path d="M857.44,511.79c0,12.82-9.12,23.22-20.37,23.22s-20.37-10.4-20.37-23.22c0-12.82,7.25-33.31,18.5-33.31
			C846.45,478.48,857.44,498.97,857.44,511.79z"/>
		<path d="M829.74,534.9c0,12.82-9.12,23.22-20.37,23.22S789,547.72,789,534.9c0-12.82,7.25-33.31,18.5-33.31
			S829.74,522.08,829.74,534.9z"/>
		<path d="M863.02,546.81c0,12.82-9.12,23.22-20.37,23.22s-20.37-10.4-20.37-23.22s7.25-33.31,18.5-33.31
			S863.02,533.99,863.02,546.81z"/>
		<path d="M833.6,576.91c0,12.82-9.12,23.22-20.37,23.22s-20.37-10.4-20.37-23.22s7.25-33.31,18.5-33.31S833.6,564.08,833.6,576.91z
			"/>
		<path d="M866.63,576.91c0,12.82-9.12,23.22-20.37,23.22c-11.25,0-20.37-10.4-20.37-23.22s7.25-33.31,18.5-33.31
			S866.63,564.08,866.63,576.91z"/>
		<path d="M850,610.03c0,12.82-9.12,23.22-20.37,23.22c-11.25,0-20.37-10.4-20.37-23.22s7.25-33.31,18.5-33.31S850,597.2,850,610.03
			z"/>
		<ellipse cx="742.77" cy="461.75" rx="20.37" ry="23.22"/>
		<ellipse cx="737.15" cy="609.41" rx="20.37" ry="23.22"/>
		<ellipse cx="729.09" cy="586.89" rx="20.37" ry="23.22"/>
		<ellipse cx="729.09" cy="552.35" rx="20.37" ry="23.22"/>
		<ellipse cx="717.44" cy="545.37" rx="20.37" ry="33.63"/>
		<circle cx="742.11" cy="386.96" r="18.66"/>
		<circle cx="742.77" cy="349.63" r="25.33"/>
		<ellipse cx="742.11" cy="337.79" rx="25.33" ry="58.5"/>
		<circle cx="735.48" cy="289.97" r="25.33"/>
		<circle cx="724.13" cy="268.44" r="25.33"/>
		<circle cx="742.11" cy="264.64" r="32.65"/>
		<circle cx="786.79" cy="329.95" r="32.65"/>
		<circle cx="742.77" cy="425.6" r="25.36"/>
		<path d="M774.51,493.15c0,14.01-14.73,25.36-32.89,25.36s-32.89-11.35-32.89-25.36s14.73-32.76,32.89-32.76
			S774.51,479.14,774.51,493.15z"/>
	</g>
	<path d="M134.5,710.96"/>
	<g>
		<path d="M13.29,522.97c-4.31,53.41,11.3,182.24,57.78,266.4c6.39-7.19,18.54-29.83,28.28-38.05
			c20.43-17.25,29.45-29.62,53.84-40.36c-21.45-60.73-24.47-93.44-28.85-152.19C108.46,345.54,293.83,158.89,670.06,79.04
			c16.91-3.59,29.39-17.98,30.49-35.24l1.76-27.68C242.6,65.41,31.57,296.52,13.29,522.97z"/>
		<path d="M1089.03,595.88C1107.27,311.87,750.69,115.77,620.7,89.6c-27.2-5.48-84.06,12.43-83.79,46.45l10.15,0.82
			c237.93,5.93,512.38,282,442.56,496.66c-28.36,87.2-25.57,60.03-83.65,115.51c0,0,1.08,4.55,1.08,4.55l0,0
			c5.68,9.03,3.84,62.16,3.15,77.07c-1.07,23.19-24.85,61.14-21.33,86.6C997.67,839.79,1084.31,669.35,1089.03,595.88z"/>
	</g>
	<ellipse transform="matrix(0.0728 -0.9973 0.9973 0.0728 -310.5045 1449.8071)" cx="624.52" cy="891.91" rx="5.43" ry="20.47"/>
	<path d="M895.44,933.12c-5.01,44.92-78.65,141.77-94.22,170.52c-24.13,44.55-95.02,120.76-177.19,154.21
		c-69.62,28.34-120.34,25.54-173.3,28.47c-138.4,7.65-316.58-73.42-329.27-130.7c-4.13-18.65-43.7-64.72-72.24-121.62
		C25.42,986.55-2.22,887.12,61.86,802.28H52.7c-69.23,126.12-32.88,185.9-8.58,234.27c29.1,57.93,69.38,104.87,73.6,123.85
		c12.99,58.3,194.13,141.08,334.71,133.54c53.79-2.89,105.31,0.06,175.99-28.65c83.41-33.89,155.28-111.29,179.71-156.57
		C826.2,1075.23,916.56,964,895.44,933.12z"/>
	<g>
		<ellipse transform="matrix(0.9494 -0.3141 0.3141 0.9494 -386.6962 243.1809)" cx="561.35" cy="1321.68" rx="12.18" ry="22"/>
		<ellipse transform="matrix(0.866 -0.5 0.5 0.866 -559.7255 497.2313)" cx="647.98" cy="1293.08" rx="12.18" ry="22"/>
		<ellipse transform="matrix(0.065 -0.9979 0.9979 0.065 -890.4644 1711.12)" cx="467.85" cy="1330.73" rx="22" ry="12.18"/>
		<ellipse transform="matrix(0.1764 -0.9843 0.9843 0.1764 -983.2028 1474.3357)" cx="389.43" cy="1324.71" rx="22" ry="12.18"/>
		<ellipse transform="matrix(0.3505 -0.9366 0.9366 0.3505 -1024.8984 1143.832)" cx="312.26" cy="1310.88" rx="22" ry="12.18"/>
		<ellipse transform="matrix(0.5 -0.866 0.866 0.5 -996.9614 845.8583)" cx="234.05" cy="1286.32" rx="22" ry="12.18"/>
		<ellipse transform="matrix(0.6161 -0.7877 0.7877 0.6161 -922.1192 606.704)" cx="161.34" cy="1249.32" rx="22" ry="12.18"/>
		<ellipse transform="matrix(0.9865 -0.1636 0.1636 0.9865 -210.3849 102.3502)" cx="516.32" cy="1328.72" rx="14.14" ry="7.04"/>
		<ellipse transform="matrix(0.9494 -0.3141 0.3141 0.9494 -380.0558 256.1419)" cx="604.89" cy="1307.55" rx="14.14" ry="7.04"/>
		<ellipse transform="matrix(0.866 -0.5 0.5 0.866 -543.7597 513.0833)" cx="685.55" cy="1271.21" rx="14.14" ry="7.04"/>
		<ellipse transform="matrix(0.12 -0.9928 0.9928 0.12 -939.6582 1589.3387)" cx="426.68" cy="1324.71" rx="7.04" ry="14.14"/>
		<ellipse transform="matrix(0.1764 -0.9843 0.9843 0.1764 -1008.0951 1431.8242)" cx="351.58" cy="1318.33" rx="7.04" ry="14.14"/>
		<ellipse transform="matrix(0.3098 -0.9508 0.9508 0.3098 -1046.452 1155.0662)" cx="272.4" cy="1298.34" rx="7.04" ry="14.14"/>
		<ellipse transform="matrix(0.5 -0.866 0.866 0.5 -999.3321 806.4439)" cx="198.73" cy="1268.67" rx="7.04" ry="14.14"/>
		<ellipse transform="matrix(0.6161 -0.7877 0.7877 0.6161 -913.7433 568.2253)" cx="126.05" cy="1221.49" rx="7.04" ry="14.14"/>
	</g>
	<g>
		<g>
			<g>
				<path class="st0" d="M760.9,1275.32c-2.89,1.06-5.17,1.51-6.82,1.38c-0.31-0.04-0.57-0.18-0.77-0.43
					c-0.23-0.28-0.4-0.71-0.51-1.3c-0.11-0.59-0.19-1.46-0.26-2.61c-0.03-0.43,0.1-0.75,0.39-0.96c0.09-0.06,0.24-0.13,0.46-0.21
					c2.87-0.55,5.07-1.21,6.62-1.98c1.54-0.77,3.05-1.73,4.52-2.9c1.44-1.15,2.37-2.31,2.79-3.46c0.42-1.16,0.29-2.14-0.38-2.94
					c-0.56-0.66-1.44-1.12-2.65-1.38c-0.76-0.17-1.66-0.08-2.72,0.25c-1.06,0.33-2.33,0.82-3.82,1.46
					c-0.16,0.08-0.61,0.28-1.34,0.59c-2.83,1.16-5.29,1.76-7.33,1.84c-2.04,0.08-3.87-0.43-5.45-1.44c-1.09-0.7-1.99-1.42-2.64-2.19
					c-1.15-1.35-1.82-2.86-2.02-4.56c-0.19-1.69,0.11-3.46,0.91-5.3c0.8-1.84,2.07-3.63,3.82-5.36c0.23-0.23,0.6-0.56,1.12-0.98
					c2.09-1.72,4.53-3.19,7.1-3.99c2.85-0.88,4.74-0.73,5.08,0.16c0.19,0.51,0.3,1.3,0.34,2.29c0.05,1,0.08,1.65,0.11,1.95
					c0.01,0.18-0.07,0.33-0.23,0.47c-0.27,0.23-0.89,0.46-1.81,0.71c-1.21,0.33-2.16,0.7-2.83,1.08c-1.49,0.79-2.64,1.51-3.44,2.16
					c-0.88,0.72-1.78,1.63-2.33,2.62c-0.46,0.83-0.64,1.77-0.63,2.54c0.01,0.77,0.22,1.41,0.65,1.91c0.64,0.74,1.61,1.09,2.86,1.02
					c1.36-0.09,2.73-0.35,4.06-0.75c1.33-0.4,2.8-0.89,4.39-1.45c1.73-0.62,3.19-1.06,4.34-1.35c1.15-0.29,2.32-0.25,3.34-0.12
					c0.92,0.11,2.08,0.39,3.26,1.03c1.19,0.64,2.15,1.4,2.9,2.28c1.31,1.54,2.03,3.24,2.16,5.08c0.13,1.84-0.28,3.7-1.24,5.55
					c-0.96,1.85-2.41,3.56-4.37,5.11C766.33,1272.86,763.79,1274.26,760.9,1275.32z"/>
				<path class="st0" d="M795.13,1222.96c-1.28,1.34-1.93,2-3.23,3.33c-6.59-4.35-9.87-6.47-16.38-10.57
					c-0.19-0.1-0.41-0.13-0.66-0.08c-0.25,0.05-0.44,0.15-0.6,0.3c-3.14,3.16-4.73,4.71-7.96,7.78c-0.18,0.17-0.29,0.38-0.33,0.63
					c-0.04,0.25-0.01,0.48,0.08,0.68c5.72,11.13,11.27,22.34,16.66,33.63c0.09,0.16,0.23,0.27,0.4,0.31c0.17,0.04,0.33,0,0.47-0.12
					c1.6-1.4,2.4-2.11,3.99-3.54c0.16-0.14,0.28-0.36,0.34-0.64c0.07-0.28,0.03-0.54-0.11-0.76c-1.85-3.84-2.77-5.74-4.62-9.51
					c-0.16-0.3-0.21-0.62-0.14-0.99c0.07-0.36,0.22-0.65,0.46-0.87c3.07-2.86,4.59-4.31,7.59-7.26c0.23-0.23,0.52-0.36,0.87-0.4
					c0.35-0.04,0.66,0.04,0.93,0.24c3.44,2.32,5.16,3.49,8.62,5.88c0.17,0.14,0.39,0.2,0.67,0.16c0.28-0.04,0.49-0.14,0.65-0.29
					c1.51-1.51,2.27-2.27,3.76-3.8c0.25-0.26,0.25-0.54-0.02-0.85c-0.04-0.05-0.07-0.08-0.11-0.13c-3.93-2.69-5.89-4.02-9.79-6.62
					c0.89-0.91,1.33-1.36,2.21-2.27c0.39-0.4,0.4-1.08,0.02-1.5c-0.97-1.09-1.45-1.63-2.41-2.71
					C796.14,1222.56,795.52,1222.55,795.13,1222.96z M780.95,1237.03c-0.24,0.22-0.48,0.33-0.73,0.31
					c-0.25-0.01-0.47-0.12-0.66-0.34c-0.05-0.1-0.08-0.14-0.14-0.24c-2.06-4.14-3.09-6.2-5.16-10.26c-0.16-0.23-0.21-0.53-0.15-0.89
					c0.06-0.36,0.21-0.65,0.44-0.87c0.09-0.09,0.14-0.13,0.23-0.22c0.23-0.22,0.52-0.36,0.87-0.4c0.35-0.04,0.63,0.03,0.84,0.21
					c3.78,2.4,5.68,3.62,9.5,6.11c0.27,0.19,0.41,0.45,0.44,0.78c0.03,0.33-0.09,0.62-0.35,0.87
					C784.05,1234.09,783.02,1235.08,780.95,1237.03z"/>
				<path class="st0" d="M812.29,1230.72c-0.27-0.01-0.49-0.11-0.67-0.31c-7.94-9.09-16.03-18.05-24.26-26.87
					c-0.17-0.18-0.25-0.41-0.25-0.7c0-0.29,0.09-0.54,0.29-0.75c3.02-3.34,4.51-5.04,7.44-8.47c1.44-1.69,3.12-2.88,5.05-3.57
					c1.92-0.69,3.86-0.8,5.81-0.32c1.95,0.48,3.69,1.52,5.2,3.13c1.29,1.38,2.23,3,2.79,4.88c0.57,1.88,0.79,3.84,0.65,5.87
					c-0.02,0.3,0.08,0.56,0.27,0.78c0.07,0.08,0.15,0.14,0.22,0.16c0.07,0.03,0.12,0.05,0.15,0.08c5.49,2.29,8.24,3.45,13.77,5.85
					c0.25,0.11,0.45,0.25,0.6,0.42c0.28,0.31,0.26,0.65-0.04,1.01c-1.23,1.49-1.85,2.22-3.1,3.69c-0.26,0.31-0.48,0.51-0.66,0.6
					c-0.18,0.1-0.42,0.09-0.71-0.03c-5.01-2.19-7.5-3.27-12.47-5.37c-0.2-0.11-0.39-0.12-0.57-0.02c-0.18,0.09-0.45,0.32-0.81,0.68
					c-1.14,1.31-1.72,1.96-2.88,3.26c-0.36,0.41-0.56,0.74-0.6,0.99c-0.03,0.26,0.08,0.54,0.35,0.84c3.24,3.61,4.87,5.43,8.13,9.14
					c0.17,0.2,0.26,0.45,0.26,0.75c0,0.3-0.1,0.56-0.29,0.78c-1.18,1.29-1.77,1.93-2.97,3.21
					C812.79,1230.63,812.56,1230.73,812.29,1230.72z M806.4,1206.02c0.92-1.06,1.37-2.35,1.35-3.85c-0.02-1.5-0.51-2.76-1.44-3.77
					c-0.96-1.03-2.1-1.51-3.41-1.45c-1.31,0.06-2.42,0.63-3.34,1.69c-1.31,1.52-1.97,2.28-3.29,3.78c-0.43,0.49-0.4,0.99,0.09,1.51
					c2.19,2.36,3.29,3.55,5.49,5.96c0.17,0.19,0.36,0.29,0.56,0.3c0.21,0.01,0.39-0.08,0.56-0.26
					C804.35,1208.37,805.04,1207.59,806.4,1206.02z"/>
				<path class="st0" d="M835.88,1203.19c-0.26,0-0.49-0.09-0.66-0.29c-8.22-9.05-16.58-17.97-25.08-26.76
					c-0.2-0.21-0.3-0.47-0.31-0.78c-0.01-0.31,0.06-0.57,0.22-0.77c1.35-1.79,2.02-2.69,3.35-4.51c0.15-0.2,0.35-0.31,0.61-0.33
					c0.25-0.02,0.48,0.07,0.68,0.28c8.57,8.78,16.99,17.69,25.27,26.73c0.18,0.2,0.29,0.45,0.31,0.75c0.03,0.3-0.04,0.57-0.22,0.8
					c-1.39,1.82-2.09,2.72-3.5,4.52C836.37,1203.07,836.14,1203.19,835.88,1203.19z"/>
				<path class="st0" d="M847.14,1188.32c-0.26,0.01-0.48-0.08-0.66-0.28c-8.38-9.05-16.91-17.96-25.58-26.74
					c-0.18-0.18-0.28-0.42-0.31-0.73c-0.03-0.3,0.04-0.58,0.21-0.82c2.58-3.75,3.85-5.65,6.33-9.48c1.22-1.88,2.72-3.26,4.49-4.12
					c1.78-0.86,3.62-1.11,5.53-0.73c1.91,0.37,3.67,1.36,5.26,2.96c1.36,1.37,2.4,3.02,3.12,4.96c0.71,1.94,1.1,4,1.16,6.15
					c0.01,0.32,0.12,0.59,0.33,0.8c0.08,0.08,0.15,0.13,0.23,0.16c0.07,0.02,0.12,0.05,0.15,0.07c7.5,2.18,11.27,3.31,18.85,5.65
					c0.25,0.1,0.45,0.24,0.61,0.41c0.29,0.31,0.31,0.67,0.06,1.08c-1.04,1.66-1.56,2.49-2.62,4.14c-0.22,0.34-0.41,0.57-0.58,0.69
					c-0.16,0.11-0.39,0.12-0.69,0.02c-7.07-2.18-10.58-3.24-17.58-5.28c-0.2-0.1-0.38-0.09-0.54,0.02c-0.16,0.11-0.4,0.37-0.71,0.77
					c-0.98,1.46-1.47,2.19-2.46,3.65c-0.31,0.45-0.47,0.82-0.48,1.09c-0.01,0.27,0.13,0.56,0.41,0.86c3.42,3.58,5.13,5.4,8.57,9.09
					c0.18,0.2,0.29,0.46,0.31,0.78c0.03,0.32-0.04,0.6-0.21,0.84c-1.01,1.45-1.53,2.17-2.55,3.61
					C847.61,1188.18,847.4,1188.31,847.14,1188.32z M839.32,1162.61c0.79-1.19,1.1-2.58,0.94-4.17c-0.16-1.59-0.74-2.88-1.72-3.89
					c-1.01-1.03-2.14-1.46-3.39-1.3c-1.25,0.15-2.26,0.83-3.03,2.02c-1.11,1.7-1.67,2.54-2.8,4.23c-0.36,0.54-0.29,1.07,0.22,1.6
					c2.31,2.35,3.46,3.53,5.78,5.93c0.18,0.19,0.37,0.28,0.57,0.28c0.2,0,0.37-0.11,0.51-0.32
					C837.57,1165.24,838.16,1164.37,839.32,1162.61z"/>
				<path class="st0" d="M867.23,1157.59c-0.25,0.02-0.47-0.06-0.66-0.26c-8.68-8.98-17.49-17.82-26.45-26.53
					c-0.21-0.2-0.33-0.47-0.37-0.8c-0.04-0.33,0.01-0.61,0.13-0.83c1.12-1.98,1.68-2.97,2.78-4.97c0.12-0.23,0.31-0.35,0.55-0.39
					c0.24-0.04,0.47,0.05,0.68,0.25c9.02,8.69,17.9,17.52,26.64,26.48c0.19,0.2,0.31,0.45,0.37,0.76c0.06,0.31,0.01,0.6-0.14,0.86
					c-1.16,2.01-1.75,3.01-2.94,5.01C867.68,1157.43,867.48,1157.56,867.23,1157.59z"/>
			</g>
			<g>
				<g>
					<g>
						<g>
							<path class="st0" d="M736.62,1237.03c0.14,0.68,0.15,1.35,0.02,2c-0.12,0.66-0.37,1.28-0.74,1.88
								c-0.38,0.6-0.87,1.14-1.49,1.63c-0.67,0.53-1.41,0.92-2.22,1.17c-0.81,0.25-1.63,0.35-2.47,0.29
								c-0.57-0.04-1.08-0.14-1.53-0.31c-0.45-0.16-0.89-0.41-1.33-0.73c-0.44-0.32-0.89-0.74-1.37-1.24
								c-0.48-0.51-1.03-1.11-1.67-1.81c-0.63-0.7-1.17-1.31-1.61-1.82c-0.45-0.51-0.8-0.99-1.06-1.44
								c-0.26-0.45-0.44-0.89-0.53-1.33c-0.09-0.43-0.11-0.92-0.05-1.44c0.09-0.76,0.34-1.49,0.74-2.18
								c0.4-0.69,0.93-1.31,1.59-1.84c0.62-0.5,1.27-0.89,1.95-1.15c0.67-0.26,1.36-0.4,2.04-0.42c0.68-0.02,1.37,0.08,2.04,0.3
								c0.68,0.22,1.33,0.56,1.96,1.02c-0.42,0.35-0.64,0.53-1.06,0.88c-0.99-0.69-2.03-1.01-3.12-0.98
								c-1.09,0.03-2.11,0.42-3.04,1.17c-0.49,0.4-0.89,0.86-1.2,1.38c-0.31,0.52-0.5,1.08-0.57,1.67c-0.05,0.41-0.03,0.8,0.05,1.16
								c0.08,0.36,0.24,0.74,0.48,1.14c0.24,0.4,0.56,0.84,0.97,1.32c0.41,0.48,0.91,1.06,1.51,1.73c0.6,0.67,1.13,1.23,1.57,1.69
								c0.45,0.46,0.86,0.84,1.25,1.13c0.38,0.29,0.76,0.51,1.14,0.65c0.37,0.14,0.79,0.23,1.24,0.26c0.64,0.04,1.27-0.04,1.88-0.23
								c0.61-0.2,1.17-0.49,1.67-0.89c0.95-0.75,1.52-1.65,1.72-2.69c0.2-1.04,0.01-2.09-0.57-3.13c0.41-0.34,0.62-0.51,1.03-0.84
								C736.22,1235.68,736.48,1236.35,736.62,1237.03z"/>
							<path class="st0" d="M749.22,1225.63c0.25,0.72,0.34,1.45,0.27,2.18c-0.07,0.73-0.28,1.46-0.66,2.16
								c-0.37,0.7-0.9,1.35-1.58,1.94c-0.69,0.59-1.41,1.03-2.16,1.31c-0.76,0.28-1.51,0.4-2.27,0.38c-0.76-0.02-1.48-0.2-2.18-0.52
								c-0.7-0.32-1.32-0.79-1.88-1.4c-3.09-3.4-4.63-5.07-7.7-8.37c0.41-0.35,0.62-0.52,1.02-0.88c3.03,3.25,4.55,4.9,7.6,8.24
								c0.47,0.52,0.99,0.92,1.55,1.21c0.56,0.29,1.14,0.44,1.74,0.48c0.59,0.03,1.19-0.06,1.79-0.28c0.59-0.21,1.17-0.56,1.71-1.03
								c0.54-0.47,0.96-0.99,1.25-1.54c0.29-0.55,0.45-1.12,0.49-1.7c0.04-0.58-0.05-1.16-0.28-1.75c-0.23-0.58-0.58-1.13-1.06-1.65
								c-3.08-3.35-4.61-5-7.67-8.25c0.4-0.36,0.6-0.54,1-0.9c3.1,3.3,4.66,4.97,7.79,8.37
								C748.56,1224.25,748.97,1224.91,749.22,1225.63z"/>
							<path class="st0" d="M755.68,1224.2c-4.67-5.11-6.99-7.61-11.61-12.49c0.39-0.37,0.59-0.55,0.98-0.92
								c4.31,4.56,6.48,6.88,10.84,11.63c2.79-2.59,4.18-3.9,6.91-6.55c0.32,0.34,0.48,0.52,0.79,0.86
								C760.47,1219.76,758.89,1221.25,755.68,1224.2z"/>
							<path class="st0" d="M757.01,1200.7c4.38,4.57,6.58,6.91,11.01,11.67c-0.38,0.39-0.58,0.58-0.96,0.96
								c-4.42-4.77-6.62-7.1-11-11.67c-1.49,1.51-2.25,2.26-3.76,3.74c-0.31-0.33-0.47-0.5-0.79-0.82c3.42-3.36,5.1-5.07,8.41-8.53
								c0.32,0.33,0.48,0.49,0.79,0.82C759.25,1198.41,758.5,1199.18,757.01,1200.7z"/>
							<path class="st0" d="M779.84,1195.05c0.29,0.74,0.43,1.51,0.42,2.29c-0.01,0.78-0.17,1.56-0.48,2.32
								c-0.31,0.76-0.77,1.48-1.39,2.14c-0.62,0.67-1.28,1.17-1.99,1.51c-0.71,0.34-1.43,0.51-2.16,0.54
								c-0.73,0.02-1.44-0.12-2.14-0.41c-0.69-0.29-1.33-0.75-1.91-1.36c-3.22-3.4-4.83-5.08-8.02-8.38
								c0.37-0.39,0.56-0.59,0.93-0.99c3.15,3.25,4.74,4.91,7.92,8.26c0.49,0.52,1.02,0.91,1.59,1.18c0.56,0.27,1.13,0.4,1.71,0.4
								c0.58,0,1.14-0.14,1.7-0.4c0.56-0.26,1.09-0.66,1.58-1.19c0.49-0.53,0.86-1.1,1.1-1.7c0.24-0.6,0.36-1.21,0.35-1.82
								c-0.01-0.61-0.14-1.22-0.4-1.82c-0.26-0.6-0.64-1.16-1.14-1.68c-3.21-3.35-4.81-5-7.99-8.26c0.36-0.41,0.54-0.61,0.9-1.02
								c3.23,3.3,4.86,4.98,8.12,8.38C779.11,1193.64,779.55,1194.31,779.84,1195.05z"/>
							<path class="st0" d="M792.86,1185.06c-3.37-1.03-5.05-1.53-8.4-2.52c-1.27,1.51-1.91,2.27-3.2,3.76
								c2.23,2.31,3.35,3.47,5.6,5.83c-0.36,0.41-0.54,0.62-0.9,1.03c-4.87-5.11-7.29-7.61-12.1-12.5c1.77-2.06,2.65-3.1,4.39-5.2
								c0.46-0.56,0.96-1,1.5-1.35c0.54-0.34,1.09-0.56,1.66-0.64c0.56-0.08,1.13-0.02,1.71,0.2c0.57,0.21,1.13,0.58,1.65,1.12
								c0.91,0.93,1.42,1.97,1.51,3.13c0.09,1.16-0.19,2.3-0.85,3.42c3.37,0.98,5.05,1.48,8.44,2.49
								C793.47,1184.33,793.27,1184.57,792.86,1185.06z M782.66,1174.98c-0.43-0.16-0.86-0.21-1.29-0.15
								c-0.43,0.07-0.84,0.24-1.25,0.51c-0.4,0.28-0.79,0.64-1.15,1.07c-1.35,1.62-2.03,2.43-3.4,4.03c1.95,1.98,2.93,2.98,4.89,5
								c1.38-1.6,2.07-2.41,3.43-4.03c0.37-0.44,0.66-0.9,0.87-1.37c0.21-0.47,0.33-0.95,0.35-1.44c0.02-0.48-0.07-0.96-0.25-1.42
								c-0.19-0.46-0.49-0.91-0.91-1.34C783.51,1175.44,783.08,1175.15,782.66,1174.98z"/>
							<path class="st0" d="M803.22,1172.03c-1.6-0.74-2.39-1.1-3.98-1.83c-2.05,2.68-3.08,4-5.18,6.63
								c0.81,1.72,1.21,2.58,2.02,4.31c-0.37,0.46-0.56,0.69-0.93,1.14c-3.26-7.17-4.9-10.7-8.19-17.67
								c0.3-0.38,0.44-0.57,0.74-0.96c6.52,2.79,9.81,4.23,16.42,7.2C803.76,1171.32,803.58,1171.56,803.22,1172.03z
								 M788.57,1165.37c1.98,4.07,2.96,6.13,4.93,10.27c1.88-2.36,2.81-3.55,4.64-5.95
								C794.29,1167.93,792.38,1167.06,788.57,1165.37z"/>
						</g>
					</g>
				</g>
			</g>
		</g>
	</g>
</g>
</svg>
